<svg width="110" height="47" viewBox="0 0 110 47" fill="none" xmlns="http://www.w3.org/2000/svg">
<path d="M18.844 0.109838C20.0488 0.114397 21.3576 0.816993 22.5614 0.865875C23.8497 0.91819 24.788 0.00524623 26.0773 0.000155517C29.75 -0.0143451 32.7925 1.15459 35.8066 2.70052C37.9673 3.80869 39.6128 5.74857 40.2855 8.08176C41.0104 10.5955 41.3584 12.6718 41.6424 15.517C41.7468 16.5626 41.6872 17.6264 41.3578 18.6242C40.4226 21.4571 38.9523 23.6814 38.0475 26.646C37.8559 27.2738 37.6416 27.8958 37.3721 28.4943C35.5581 32.5226 34.1094 36.8735 32.929 41.0978C32.5003 42.6318 32.2972 43.3965 31.8075 44.1625C30.9597 45.4887 29.1727 45.5907 27.6199 45.3326C26.0741 45.0756 24.7666 44.1731 24.2094 42.7086C23.2394 40.159 22.6326 38.2938 22.4915 34.9281C22.4528 34.1785 22.4141 33.4289 22.3743 32.6566C22.3008 31.2154 22.2709 29.7739 22.2229 28.3323C22.1967 27.5472 22.0378 26.4372 21.2553 26.3671C20.4049 26.2909 20.1569 27.5929 20.0978 28.4447C20.0506 29.1257 19.9986 29.8117 19.968 30.5101C19.893 31.9828 19.8174 33.4554 19.7415 34.9281C19.6951 36.0351 19.6951 36.0351 19.6477 37.1644C19.5134 39.6383 19.385 41.3404 18.7092 43.1235C17.9285 45.1833 16.0188 47.0439 13.8252 46.8438C13.6917 46.8316 13.5549 46.8121 13.4111 46.7852C11.8655 46.4963 10.4586 45.5823 9.64526 44.2366C7.83128 41.2353 7.75594 37.6268 6.73756 34.046C5.75351 30.6241 4.51209 26.8051 2.49536 24.1232C1.87916 23.3038 1.22004 22.4976 0.862566 21.5367C-0.403228 18.134 -0.0745665 14.6115 0.571365 10.8348C0.768462 9.68235 1.17298 8.56555 1.82771 7.59693C6.75732 0.303943 12.3013 0.0850813 18.844 0.109838ZM5.17375 7.05178C4.4573 7.73942 3.86263 8.55737 3.52898 9.49269C2.54978 12.2377 2.63146 15.0662 2.97272 17.9803C3.06116 18.7355 3.2487 19.4761 3.53295 20.1814C4.48922 22.5538 5.58977 24.8141 6.73756 27.1195C8.66059 31.2979 9.99058 35.6657 11.2514 40.072C11.7998 41.9885 13.4154 44.7579 14.9736 43.5146C15.8311 42.8303 16.1804 41.5402 16.3015 40.4498C16.9847 34.3016 17.1359 32.9403 17.7333 27.5637C17.9756 25.383 19.0257 22.5811 21.2196 22.6158C23.3658 22.6498 24.3141 25.3435 24.5446 27.4776C24.9898 31.599 25.4187 35.7367 25.8782 39.9506C26.0311 41.3521 26.6914 43.2217 28.0165 43.7032C29.5565 44.2627 30.3998 42.2409 30.9046 40.6822C31.0432 40.2545 31.1826 39.824 31.3235 39.389C31.8584 37.7561 32.3936 36.1233 32.929 34.4906C33.19 33.6823 33.451 32.8741 33.72 32.0414C34.8942 28.4751 36.0883 25.1714 37.7844 21.8109C39.4982 18.3431 39.8825 15.2995 39.3836 11.6988C39.2377 10.6451 38.8669 9.63256 38.2856 8.74181C36.8955 6.61207 35.2393 4.89375 32.9972 3.59071C32.4276 3.25966 31.7745 3.10894 31.1157 3.10065C29.9054 3.0854 28.6948 3.08052 27.4843 3.08725C26.31 3.09379 25.5123 4.15874 25.966 5.24191C26.4842 6.47915 25.4991 7.6524 24.3521 6.95701C22.833 6.03609 21.408 4.77484 19.9469 3.69978C19.4073 3.30275 18.775 3.04803 18.1123 2.94995C12.5312 2.12399 9.09607 3.28721 5.17375 7.05178Z" fill="#04E4C9"/>
<path d="M57.2483 14.4294C56.9843 14.4294 56.7403 14.3654 56.5163 14.2374C56.3003 14.1094 56.1283 13.9374 56.0003 13.7214C55.8723 13.4974 55.8083 13.2534 55.8083 12.9894V12.6534H56.7803V12.9894C56.7803 13.1174 56.8243 13.2294 56.9123 13.3254C57.0083 13.4134 57.1203 13.4574 57.2483 13.4574H63.0083C63.1363 13.4574 63.2443 13.4134 63.3323 13.3254C63.4283 13.2294 63.4763 13.1174 63.4763 12.9894V11.0574C63.4763 10.9294 63.4283 10.8214 63.3323 10.7334C63.2443 10.6454 63.1363 10.6014 63.0083 10.6014H57.2483C56.9843 10.6014 56.7403 10.5374 56.5163 10.4094C56.3003 10.2734 56.1283 10.0974 56.0003 9.88144C55.8723 9.66544 55.8083 9.42544 55.8083 9.16144V7.22944C55.8083 6.96544 55.8723 6.72544 56.0003 6.50944C56.1283 6.28544 56.3003 6.10944 56.5163 5.98144C56.7403 5.85344 56.9843 5.78944 57.2483 5.78944H63.0083C63.2723 5.78944 63.5123 5.85344 63.7283 5.98144C63.9523 6.10944 64.1283 6.28544 64.2563 6.50944C64.3843 6.72544 64.4483 6.96544 64.4483 7.22944V7.56544H63.4763V7.22944C63.4763 7.10144 63.4283 6.99344 63.3323 6.90544C63.2443 6.80944 63.1363 6.76144 63.0083 6.76144H57.2483C57.1203 6.76144 57.0083 6.80944 56.9123 6.90544C56.8243 6.99344 56.7803 7.10144 56.7803 7.22944V9.16144C56.7803 9.28944 56.8243 9.39744 56.9123 9.48544C57.0083 9.57344 57.1203 9.61744 57.2483 9.61744H63.0083C63.2723 9.61744 63.5123 9.68544 63.7283 9.82144C63.9523 9.94944 64.1283 10.1214 64.2563 10.3374C64.3843 10.5534 64.4483 10.7934 64.4483 11.0574V12.9894C64.4483 13.2534 64.3843 13.4974 64.2563 13.7214C64.1283 13.9374 63.9523 14.1094 63.7283 14.2374C63.5123 14.3654 63.2723 14.4294 63.0083 14.4294H57.2483ZM65.7115 14.4294V7.46944H71.3515C71.6155 7.46944 71.8555 7.53744 72.0715 7.67344C72.2955 7.80144 72.4715 7.97744 72.5995 8.20144C72.7355 8.41744 72.8035 8.65744 72.8035 8.92144V14.4294H71.8195V8.92144C71.8195 8.79344 71.7715 8.68544 71.6755 8.59744C71.5875 8.50144 71.4795 8.45344 71.3515 8.45344H67.1755C67.0475 8.45344 66.9355 8.50144 66.8395 8.59744C66.7435 8.68544 66.6955 8.79344 66.6955 8.92144V14.4294H65.7115ZM75.3072 14.4294C75.0432 14.4294 74.7992 14.3654 74.5752 14.2374C74.3592 14.1014 74.1832 13.9254 74.0472 13.7094C73.9192 13.4854 73.8552 13.2414 73.8552 12.9774V8.92144C73.8552 8.65744 73.9192 8.41744 74.0472 8.20144C74.1832 7.97744 74.3592 7.80144 74.5752 7.67344C74.7992 7.53744 75.0432 7.46944 75.3072 7.46944H79.4832C79.7552 7.46944 79.9992 7.53744 80.2152 7.67344C80.4392 7.80144 80.6152 7.97744 80.7432 8.20144C80.8792 8.41744 80.9472 8.65744 80.9472 8.92144V12.9774C80.9472 13.2414 80.8792 13.4854 80.7432 13.7094C80.6152 13.9254 80.4392 14.1014 80.2152 14.2374C79.9992 14.3654 79.7552 14.4294 79.4832 14.4294H75.3072ZM75.3072 13.4454H79.4832C79.6112 13.4454 79.7192 13.4014 79.8072 13.3134C79.9032 13.2174 79.9512 13.1054 79.9512 12.9774V8.92144C79.9512 8.79344 79.9032 8.68544 79.8072 8.59744C79.7192 8.50144 79.6112 8.45344 79.4832 8.45344H75.3072C75.1792 8.45344 75.0672 8.50144 74.9712 8.59744C74.8832 8.68544 74.8392 8.79344 74.8392 8.92144V12.9774C74.8392 13.1054 74.8832 13.2174 74.9712 13.3134C75.0672 13.4014 75.1792 13.4454 75.3072 13.4454ZM84.2859 14.4294L81.5499 7.46944H82.6059L84.7179 12.6534L86.9619 7.46944H88.2579L90.6459 12.6414L92.6139 7.46944H93.6819L91.0539 14.4294H90.2019L87.6099 8.68144L85.1499 14.4294H84.2859ZM95.7734 17.1894V16.1934H100.117C100.245 16.1934 100.353 16.1454 100.441 16.0494C100.537 15.9614 100.585 15.8534 100.585 15.7254V14.4294H95.9414C95.6774 14.4294 95.4334 14.3654 95.2094 14.2374C94.9934 14.1014 94.8174 13.9254 94.6814 13.7094C94.5534 13.4854 94.4894 13.2414 94.4894 12.9774V7.49344H95.4734V12.9774C95.4734 13.1054 95.5174 13.2174 95.6054 13.3134C95.7014 13.4014 95.8134 13.4454 95.9414 13.4454H100.117C100.245 13.4454 100.353 13.4014 100.441 13.3134C100.537 13.2174 100.585 13.1054 100.585 12.9774V7.49344H101.569V15.7254C101.569 15.9974 101.505 16.2414 101.377 16.4574C101.249 16.6814 101.073 16.8574 100.849 16.9854C100.633 17.1214 100.389 17.1894 100.117 17.1894H95.7734Z" fill="black"/>
<path d="M53.335 39.4294C52.895 39.4294 52.4884 39.3228 52.115 39.1094C51.755 38.8961 51.4684 38.6094 51.255 38.2494C51.0417 37.8761 50.935 37.4694 50.935 37.0294V36.4694H52.555V37.0294C52.555 37.2428 52.6284 37.4294 52.775 37.5894C52.935 37.7361 53.1217 37.8094 53.335 37.8094H62.935C63.1484 37.8094 63.3284 37.7361 63.475 37.5894C63.635 37.4294 63.715 37.2428 63.715 37.0294V33.8094C63.715 33.5961 63.635 33.4161 63.475 33.2694C63.3284 33.1228 63.1484 33.0494 62.935 33.0494H53.335C52.895 33.0494 52.4884 32.9428 52.115 32.7294C51.755 32.5028 51.4684 32.2094 51.255 31.8494C51.0417 31.4894 50.935 31.0894 50.935 30.6494V27.4294C50.935 26.9894 51.0417 26.5894 51.255 26.2294C51.4684 25.8561 51.755 25.5628 52.115 25.3494C52.4884 25.1361 52.895 25.0294 53.335 25.0294H62.935C63.375 25.0294 63.775 25.1361 64.135 25.3494C64.5084 25.5628 64.8017 25.8561 65.015 26.2294C65.2284 26.5894 65.335 26.9894 65.335 27.4294V27.9894H63.715V27.4294C63.715 27.2161 63.635 27.0361 63.475 26.8894C63.3284 26.7294 63.1484 26.6494 62.935 26.6494H53.335C53.1217 26.6494 52.935 26.7294 52.775 26.8894C52.6284 27.0361 52.555 27.2161 52.555 27.4294V30.6494C52.555 30.8628 52.6284 31.0428 52.775 31.1894C52.935 31.3361 53.1217 31.4094 53.335 31.4094H62.935C63.375 31.4094 63.775 31.5228 64.135 31.7494C64.5084 31.9628 64.8017 32.2494 65.015 32.6094C65.2284 32.9694 65.335 33.3694 65.335 33.8094V37.0294C65.335 37.4694 65.2284 37.8761 65.015 38.2494C64.8017 38.6094 64.5084 38.8961 64.135 39.1094C63.775 39.3228 63.375 39.4294 62.935 39.4294H53.335ZM67.4404 39.4294V27.8294H82.7604C83.2137 27.8294 83.6204 27.9428 83.9804 28.1694C84.3537 28.3828 84.647 28.6761 84.8604 29.0494C85.0737 29.4094 85.1804 29.8094 85.1804 30.2494V39.4294H83.5604V30.2494C83.5604 30.0361 83.4804 29.8561 83.3204 29.7094C83.1604 29.5494 82.9737 29.4694 82.7604 29.4694H77.9404C77.727 29.4694 77.5404 29.5494 77.3804 29.7094C77.2337 29.8561 77.1604 30.0361 77.1604 30.2494V39.4294H75.5004V30.2494C75.5004 30.0361 75.4204 29.8561 75.2604 29.7094C75.1137 29.5494 74.9337 29.4694 74.7204 29.4694H69.8804C69.667 29.4694 69.4804 29.5494 69.3204 29.7094C69.1737 29.8561 69.1004 30.0361 69.1004 30.2494V39.4294H67.4404ZM86.9511 39.4294V27.8294H88.5911V39.4294H86.9511ZM86.9511 25.6694V24.0294H88.5911V25.6694H86.9511ZM93.5313 39.4294C93.0913 39.4294 92.6846 39.3228 92.3113 39.1094C91.9513 38.8828 91.658 38.5894 91.4313 38.2294C91.218 37.8561 91.1113 37.4494 91.1113 37.0094V24.0294H92.7513V37.0094C92.7513 37.2228 92.8246 37.4094 92.9713 37.5694C93.1313 37.7161 93.318 37.7894 93.5313 37.7894H95.4913V39.4294H93.5313ZM99.2535 39.4294C98.8135 39.4294 98.4068 39.3228 98.0335 39.1094C97.6735 38.8828 97.3801 38.5894 97.1535 38.2294C96.9401 37.8561 96.8335 37.4494 96.8335 37.0094V30.2494C96.8335 29.8094 96.9401 29.4094 97.1535 29.0494C97.3801 28.6761 97.6735 28.3828 98.0335 28.1694C98.4068 27.9428 98.8135 27.8294 99.2535 27.8294H106.213C106.667 27.8294 107.073 27.9428 107.433 28.1694C107.807 28.3828 108.1 28.6761 108.313 29.0494C108.54 29.4094 108.653 29.8094 108.653 30.2494V34.4494H98.4735V37.0094C98.4735 37.2228 98.5468 37.4094 98.6935 37.5694C98.8535 37.7161 99.0401 37.7894 99.2535 37.7894H108.653V39.4294H99.2535ZM98.4735 32.8094H106.993V30.2494C106.993 30.0361 106.913 29.8561 106.753 29.7094C106.607 29.5494 106.427 29.4694 106.213 29.4694H99.2535C99.0401 29.4694 98.8535 29.5494 98.6935 29.7094C98.5468 29.8561 98.4735 30.0361 98.4735 30.2494V32.8094Z" fill="url(#paint0_linear_11_99)"/>
<defs>
<linearGradient id="paint0_linear_11_99" x1="79.7881" y1="34.386" x2="79.7881" y2="46.2555" gradientUnits="userSpaceOnUse">
<stop stop-color="#0FF1FF"/>
<stop offset="1" stop-color="#92D0C5" stop-opacity="0.15"/>
</linearGradient>
</defs>
</svg>
