<svg width="130" height="55" viewBox="0 0 130 55" fill="none" xmlns="http://www.w3.org/2000/svg">
<path d="M21.9276 0.364384C23.3295 0.369689 24.8525 1.18725 26.2532 1.24414C27.7524 1.30501 28.8442 0.242677 30.3445 0.236753C34.6182 0.21988 38.1586 1.5801 41.6659 3.37899C44.1801 4.66851 46.0949 6.92582 46.8777 9.6408C47.7212 12.5659 48.1261 14.9819 48.4566 18.2928C48.578 19.5094 48.5087 20.7473 48.1254 21.9084C47.0373 25.2048 45.3264 27.7931 44.2734 31.2429C44.0505 31.9733 43.8011 32.6972 43.4875 33.3936C41.3767 38.0811 39.6909 43.1439 38.3173 48.0594C37.8186 49.8444 37.5822 50.7343 37.0124 51.6256C36.0258 53.1689 33.9464 53.2876 32.1395 52.9872C30.3408 52.6882 28.8193 51.638 28.171 49.9338C27.0422 46.967 26.3361 44.7967 26.1719 40.8802C26.1269 40.0079 26.0819 39.1357 26.0355 38.237C25.9501 36.56 25.9152 34.8826 25.8594 33.2051C25.8289 32.2915 25.6439 30.9999 24.7335 30.9183C23.7439 30.8296 23.4553 32.3447 23.3866 33.3358C23.3316 34.1283 23.2711 34.9266 23.2355 35.7393C23.1482 37.4529 23.0603 39.1665 22.9719 40.8802C22.9179 42.1683 22.9179 42.1683 22.8628 43.4824C22.7065 46.3612 22.5571 48.3418 21.7707 50.4167C20.8622 52.8135 18.6401 54.9786 16.0875 54.7458C15.9321 54.7316 15.773 54.7088 15.6056 54.6775C13.8071 54.3414 12.17 53.2778 11.2236 51.7119C9.11276 48.2195 9.0251 44.0205 7.84007 39.8538C6.69499 35.8719 5.25043 31.428 2.90369 28.3073C2.18666 27.3537 1.41968 26.4156 1.00371 25.2974C-0.46921 21.338 -0.0867682 17.239 0.664862 12.8443C0.894211 11.5033 1.36492 10.2038 2.12679 9.07664C7.86306 0.590251 14.3142 0.335576 21.9276 0.364384ZM6.02036 8.44228C5.18668 9.24244 4.49469 10.1942 4.10644 11.2826C2.96701 14.4768 3.06206 17.7682 3.45917 21.1591C3.56208 22.0379 3.78031 22.8997 4.11107 23.7203C5.22382 26.481 6.50446 29.1112 7.84007 31.7938C10.0778 36.6559 11.6254 41.7385 13.0925 46.8658C13.7307 49.096 15.6106 52.3185 17.4238 50.8717C18.4217 50.0755 18.8281 48.5742 18.9691 47.3054C19.764 40.1512 19.94 38.5671 20.6352 32.3107C20.9171 29.7731 22.139 26.5127 24.6919 26.5532C27.1893 26.5927 28.2928 29.7272 28.561 32.2105C29.079 37.0063 29.5782 41.8211 30.1129 46.7245C30.2907 48.3554 31.0591 50.5309 32.601 51.0912C34.393 51.7423 35.3743 49.3896 35.9618 47.5758C36.123 47.0782 36.2852 46.5772 36.4492 46.0711C37.0716 44.171 37.6943 42.271 38.3173 40.3711C38.6211 39.4306 38.9248 38.4901 39.2378 37.5211C40.6042 33.3713 41.9936 29.5269 43.9673 25.6165C45.9616 21.5812 46.4088 18.0397 45.8282 13.8497C45.6584 12.6237 45.227 11.4454 44.5505 10.4089C42.933 7.93061 41.0057 5.93112 38.3968 4.41486C37.7339 4.02963 36.974 3.85425 36.2074 3.8446C34.799 3.82685 33.3903 3.82118 31.9817 3.82901C30.6152 3.83661 29.6871 5.07584 30.215 6.33625C30.818 7.77595 29.6717 9.14119 28.3369 8.33201C26.5693 7.26039 24.9111 5.79275 23.2109 4.54177C22.583 4.07978 21.8473 3.78337 21.0761 3.66924C14.5818 2.70812 10.5845 4.06169 6.02036 8.44228Z" fill="#0FF1FF"/>
<path d="M66.7072 17C66.4 17 66.116 16.9255 65.8554 16.7766C65.604 16.6276 65.4039 16.4275 65.255 16.1761C65.106 15.9155 65.0315 15.6316 65.0315 15.3244V14.9334H66.1626V15.3244C66.1626 15.4733 66.2138 15.6036 66.3162 15.7153C66.4279 15.8177 66.5582 15.8689 66.7072 15.8689H73.4097C73.5587 15.8689 73.6843 15.8177 73.7867 15.7153C73.8984 15.6036 73.9543 15.4733 73.9543 15.3244V13.0762C73.9543 12.9273 73.8984 12.8016 73.7867 12.6992C73.6843 12.5968 73.5587 12.5456 73.4097 12.5456H66.7072C66.4 12.5456 66.116 12.4711 65.8554 12.3222C65.604 12.1639 65.4039 11.9591 65.255 11.7078C65.106 11.4564 65.0315 11.1772 65.0315 10.87V8.62182C65.0315 8.31462 65.106 8.03535 65.255 7.784C65.4039 7.52335 65.604 7.31854 65.8554 7.1696C66.116 7.02065 66.4 6.94618 66.7072 6.94618H73.4097C73.7169 6.94618 73.9962 7.02065 74.2475 7.1696C74.5082 7.31854 74.713 7.52335 74.8619 7.784C75.0109 8.03535 75.0854 8.31462 75.0854 8.62182V9.0128H73.9543V8.62182C73.9543 8.47287 73.8984 8.3472 73.7867 8.2448C73.6843 8.13309 73.5587 8.07724 73.4097 8.07724H66.7072C66.5582 8.07724 66.4279 8.13309 66.3162 8.2448C66.2138 8.3472 66.1626 8.47287 66.1626 8.62182V10.87C66.1626 11.0189 66.2138 11.1446 66.3162 11.247C66.4279 11.3494 66.5582 11.4006 66.7072 11.4006H73.4097C73.7169 11.4006 73.9962 11.4797 74.2475 11.638C74.5082 11.7869 74.713 11.9871 74.8619 12.2384C75.0109 12.4897 75.0854 12.769 75.0854 13.0762V15.3244C75.0854 15.6316 75.0109 15.9155 74.8619 16.1761C74.713 16.4275 74.5082 16.6276 74.2475 16.7766C73.9962 16.9255 73.7169 17 73.4097 17H66.7072ZM76.5552 17V8.90109H83.1182C83.4254 8.90109 83.7046 8.98022 83.956 9.13847C84.2166 9.28742 84.4214 9.49222 84.5704 9.75287C84.7286 10.0042 84.8078 10.2835 84.8078 10.5907V17H83.6627V10.5907C83.6627 10.4417 83.6069 10.3161 83.4952 10.2137C83.3928 10.102 83.2671 10.0461 83.1182 10.0461H78.2588C78.1099 10.0461 77.9795 10.102 77.8678 10.2137C77.7561 10.3161 77.7003 10.4417 77.7003 10.5907V17H76.5552ZM87.7211 17C87.4139 17 87.13 16.9255 86.8694 16.7766C86.618 16.6183 86.4132 16.4135 86.255 16.1622C86.106 15.9015 86.0315 15.6176 86.0315 15.3104V10.5907C86.0315 10.2835 86.106 10.0042 86.255 9.75287C86.4132 9.49222 86.618 9.28742 86.8694 9.13847C87.13 8.98022 87.4139 8.90109 87.7211 8.90109H92.5805C92.897 8.90109 93.1809 8.98022 93.4323 9.13847C93.6929 9.28742 93.8977 9.49222 94.0467 9.75287C94.2049 10.0042 94.284 10.2835 94.284 10.5907V15.3104C94.284 15.6176 94.2049 15.9015 94.0467 16.1622C93.8977 16.4135 93.6929 16.6183 93.4323 16.7766C93.1809 16.9255 92.897 17 92.5805 17H87.7211ZM87.7211 15.855H92.5805C92.7294 15.855 92.8551 15.8038 92.9575 15.7014C93.0692 15.5897 93.1251 15.4593 93.1251 15.3104V10.5907C93.1251 10.4417 93.0692 10.3161 92.9575 10.2137C92.8551 10.102 92.7294 10.0461 92.5805 10.0461H87.7211C87.5722 10.0461 87.4419 10.102 87.3302 10.2137C87.2278 10.3161 87.1766 10.4417 87.1766 10.5907V15.3104C87.1766 15.4593 87.2278 15.5897 87.3302 15.7014C87.4419 15.8038 87.5722 15.855 87.7211 15.855ZM98.1691 17L94.9854 8.90109H96.2142L98.6718 14.9334L101.283 8.90109H102.791L105.57 14.9194L107.86 8.90109H109.103L106.045 17H105.053L102.037 10.3114L99.1745 17H98.1691ZM111.536 20.2116V19.0527H116.591C116.74 19.0527 116.866 18.9968 116.968 18.8851C117.08 18.7827 117.136 18.657 117.136 18.5081V17H111.732C111.425 17 111.141 16.9255 110.88 16.7766C110.629 16.6183 110.424 16.4135 110.266 16.1622C110.117 15.9015 110.042 15.6176 110.042 15.3104V8.92902H111.187V15.3104C111.187 15.4593 111.238 15.5897 111.341 15.7014C111.453 15.8038 111.583 15.855 111.732 15.855H116.591C116.74 15.855 116.866 15.8038 116.968 15.7014C117.08 15.5897 117.136 15.4593 117.136 15.3104V8.92902H118.281V18.5081C118.281 18.8246 118.206 19.1085 118.057 19.3599C117.908 19.6205 117.704 19.8253 117.443 19.9743C117.192 20.1325 116.908 20.2116 116.591 20.2116H111.536Z" fill="black"/>
<path d="M62.1536 46C61.6416 46 61.1684 45.8759 60.7339 45.6276C60.315 45.3794 59.9815 45.0458 59.7332 44.6269C59.485 44.1925 59.3609 43.7193 59.3609 43.2073V42.5556H61.2459V43.2073C61.2459 43.4555 61.3313 43.6727 61.5019 43.8589C61.6881 44.0296 61.9053 44.1149 62.1536 44.1149H73.3245C73.5727 44.1149 73.7822 44.0296 73.9529 43.8589C74.139 43.6727 74.2321 43.4555 74.2321 43.2073V39.4604C74.2321 39.2121 74.139 39.0027 73.9529 38.832C73.7822 38.6613 73.5727 38.576 73.3245 38.576H62.1536C61.6416 38.576 61.1684 38.4519 60.7339 38.2036C60.315 37.9399 59.9815 37.5985 59.7332 37.1796C59.485 36.7607 59.3609 36.2953 59.3609 35.7833V32.0364C59.3609 31.5244 59.485 31.0589 59.7332 30.64C59.9815 30.2056 60.315 29.8642 60.7339 29.616C61.1684 29.3678 61.6416 29.2436 62.1536 29.2436H73.3245C73.8365 29.2436 74.3019 29.3678 74.7209 29.616C75.1553 29.8642 75.4966 30.2056 75.7449 30.64C75.9931 31.0589 76.1172 31.5244 76.1172 32.0364V32.688H74.2321V32.0364C74.2321 31.7881 74.139 31.5787 73.9529 31.408C73.7822 31.2218 73.5727 31.1287 73.3245 31.1287H62.1536C61.9053 31.1287 61.6881 31.2218 61.5019 31.408C61.3313 31.5787 61.2459 31.7881 61.2459 32.0364V35.7833C61.2459 36.0315 61.3313 36.241 61.5019 36.4116C61.6881 36.5823 61.9053 36.6676 62.1536 36.6676H73.3245C73.8365 36.6676 74.3019 36.7995 74.7209 37.0633C75.1553 37.3115 75.4966 37.6451 75.7449 38.064C75.9931 38.4829 76.1172 38.9484 76.1172 39.4604V43.2073C76.1172 43.7193 75.9931 44.1925 75.7449 44.6269C75.4966 45.0458 75.1553 45.3794 74.7209 45.6276C74.3019 45.8759 73.8365 46 73.3245 46H62.1536ZM78.567 46V32.5018H96.3939C96.9215 32.5018 97.3947 32.6337 97.8136 32.8975C98.248 33.1457 98.5893 33.487 98.8376 33.9215C99.0858 34.3404 99.2099 34.8058 99.2099 35.3178V46H97.3248V35.3178C97.3248 35.0696 97.2318 34.8601 97.0456 34.6895C96.8594 34.5033 96.6422 34.4102 96.3939 34.4102H90.7852C90.537 34.4102 90.3198 34.5033 90.1336 34.6895C89.9629 34.8601 89.8776 35.0696 89.8776 35.3178V46H87.9459V35.3178C87.9459 35.0696 87.8528 34.8601 87.6667 34.6895C87.496 34.5033 87.2865 34.4102 87.0383 34.4102H81.4063C81.1581 34.4102 80.9409 34.5033 80.7547 34.6895C80.584 34.8601 80.4987 35.0696 80.4987 35.3178V46H78.567ZM101.27 46V32.5018H103.179V46H101.27ZM101.27 29.9884V28.08H103.179V29.9884H101.27ZM108.927 46C108.415 46 107.942 45.8759 107.508 45.6276C107.089 45.3639 106.748 45.0225 106.484 44.6036C106.236 44.1692 106.111 43.696 106.111 43.184V28.08H108.02V43.184C108.02 43.4322 108.105 43.6495 108.276 43.8356C108.462 44.0063 108.679 44.0916 108.927 44.0916H111.208V46H108.927ZM115.586 46C115.074 46 114.601 45.8759 114.166 45.6276C113.747 45.3639 113.406 45.0225 113.142 44.6036C112.894 44.1692 112.77 43.696 112.77 43.184V35.3178C112.77 34.8058 112.894 34.3404 113.142 33.9215C113.406 33.487 113.747 33.1457 114.166 32.8975C114.601 32.6337 115.074 32.5018 115.586 32.5018H123.685C124.212 32.5018 124.686 32.6337 125.104 32.8975C125.539 33.1457 125.88 33.487 126.128 33.9215C126.392 34.3404 126.524 34.8058 126.524 35.3178V40.2051H114.678V43.184C114.678 43.4322 114.764 43.6495 114.934 43.8356C115.12 44.0063 115.338 44.0916 115.586 44.0916H126.524V46H115.586ZM114.678 38.2967H124.592V35.3178C124.592 35.0696 124.499 34.8601 124.313 34.6895C124.143 34.5033 123.933 34.4102 123.685 34.4102H115.586C115.338 34.4102 115.12 34.5033 114.934 34.6895C114.764 34.8601 114.678 35.0696 114.678 35.3178V38.2967Z" fill="#0FF1FF"/>
</svg>
