<svg width="43" height="43" viewBox="0 0 43 43" fill="none" xmlns="http://www.w3.org/2000/svg">
<path d="M35.8576 42.4999H7.14253C6.6969 42.5037 6.25487 42.4256 5.84186 42.2702C5.42885 42.1147 5.053 41.885 4.73594 41.5942C4.41888 41.3034 4.16685 40.9573 3.99436 40.5757C3.82187 40.1942 3.73231 39.7847 3.73083 39.3709V20.0001L21.3014 15.4102L39.2693 20.0001V39.3709C39.2693 41.0899 37.7508 42.4999 35.8576 42.4999Z" fill="#FCD53F"/>
<path d="M39.2692 6.2707C39.2692 1.19475 32.7349 -1.38823 28.8241 2.12624L21.4999 8.71868L14.1774 2.12624C10.2649 -1.40473 3.73071 1.19475 3.73071 6.2707C3.73071 8.06019 5.27664 9.50017 7.19087 9.50017L21.4999 12.7551L35.809 9.50017C36.7278 9.49424 37.6069 9.15157 38.2549 8.54674C38.903 7.94191 39.2675 7.12388 39.2692 6.2707Z" fill="#F8312F"/>
<path d="M40.3386 9.50024H2.65977C1.46923 9.50024 0.5 10.4002 0.5 11.5132V17.9872C0.5 19.1002 1.46923 20.0001 2.66138 20.0001H40.3386C41.5308 20.0001 42.5 19.1002 42.5 17.9872V11.5132C42.5 10.4002 41.5308 9.50024 40.3386 9.50024Z" fill="#FFB02E"/>
<path d="M21.5082 2.00024C18.8266 2.00024 16.6539 4.05523 16.6539 6.5902V42.4999H26.3462V6.5902C26.3624 4.05523 24.1913 2.00024 21.5082 2.00024Z" fill="#CA0B4A"/>
</svg>
